<svg width="48" height="48" viewBox="0 0 48 48" fill="none" xmlns="http://www.w3.org/2000/svg">
<path d="M24 45.5C35.8741 45.5 45.5 35.8741 45.5 24C45.5 12.1259 35.8741 2.5 24 2.5C12.1259 2.5 2.5 12.1259 2.5 24C2.5 35.8741 12.1259 45.5 24 45.5Z" stroke="#39B8FF" stroke-linecap="round" stroke-linejoin="round"/>
<path d="M23.434 24.869L24.823 32.745M10.388 35.317L9 27.44L11.556 26.99C12.2533 26.8788 12.9663 27.0452 13.5424 27.4535C14.1185 27.8618 14.5117 28.4795 14.6377 29.1742C14.7638 29.8689 14.6127 30.5854 14.2169 31.1701C13.821 31.7547 13.2119 32.1611 12.52 32.302L12.494 32.306L9.938 32.756M17.502 34.062L16.113 26.185L18.673 25.735C19.3666 25.6311 20.0735 25.8012 20.644 26.2093C21.2144 26.6174 21.6037 27.2314 21.7293 27.9215C21.855 28.6115 21.7072 29.3234 21.3172 29.9063C20.9273 30.4893 20.3257 30.8977 19.64 31.045L19.61 31.051L17.05 31.502M19.797 31.012L22.719 33.141M39.824 29.114C39.6309 29.4677 39.3598 29.7728 39.0313 30.0061C38.7028 30.2395 38.3255 30.3951 37.928 30.461V30.461C37.227 30.5874 36.5046 30.4303 35.9195 30.0241C35.3344 29.6179 34.9346 28.9959 34.808 28.295L34.803 28.273L34.352 25.713C34.2886 25.3638 34.295 25.0055 34.3707 24.6587C34.4465 24.312 34.5902 23.9837 34.7936 23.6928C34.9969 23.4019 35.2558 23.1542 35.5554 22.9638C35.855 22.7735 36.1893 22.6444 36.539 22.584V22.584C36.9355 22.5217 37.3408 22.5449 37.7276 22.652C38.1145 22.7591 38.474 22.9477 38.782 23.205M33.203 26.119L36.552 25.529M33.55 28.087L36.899 27.497M31.719 28.817C31.8454 29.5179 31.6883 30.2404 31.2821 30.8255C30.8759 31.4106 30.2539 31.8104 29.553 31.937L29.53 31.942C28.829 32.0684 28.1066 31.9113 27.5215 31.5051C26.9364 31.0989 26.5366 30.4769 26.41 29.776L26.406 29.754L25.937 27.094C25.8738 26.7474 25.8794 26.3918 25.9537 26.0474C26.0279 25.7031 26.1693 25.3767 26.3697 25.0869C26.5701 24.7972 26.8256 24.5498 27.1216 24.3588C27.4177 24.1679 27.7484 24.0371 28.095 23.974L28.125 23.968C28.4694 23.9074 28.8225 23.9169 29.1631 23.9958C29.5038 24.0747 29.8251 24.2214 30.1078 24.4272C30.3905 24.633 30.6288 24.8937 30.8086 25.1936C30.9883 25.4936 31.1058 25.8266 31.154 26.173V26.173M29.002 13.531L34.222 12.611M33.052 20.938L31.662 13.062M13.145 20.434L9.897 21.007M17.852 23.549L21.789 22.854M16.462 15.673L20.4 14.979M17.157 19.611L19.717 19.159M16.462 15.673L17.852 23.549M23.442 21.69C23.727 21.9433 24.0688 22.1243 24.4384 22.218C24.808 22.3116 25.1948 22.315 25.566 22.228L26.746 22.02C27.005 21.9744 27.2525 21.8781 27.4743 21.7368C27.6961 21.5955 27.8878 21.4119 28.0386 21.1964C28.1895 20.981 28.2963 20.738 28.3532 20.4812C28.4101 20.2244 28.4158 19.959 28.37 19.7V19.7C28.2769 19.1777 27.9802 18.7137 27.5452 18.4099C27.1102 18.1061 26.5724 17.9875 26.05 18.08L24.77 18.306C24.2482 18.397 23.7115 18.2775 23.2776 17.9737C22.8437 17.6699 22.5479 17.2065 22.455 16.685V16.685C22.3638 16.1624 22.4836 15.625 22.7883 15.1908C23.093 14.7565 23.5576 14.461 24.08 14.369L25.26 14.161C25.6304 14.0519 26.0233 14.0443 26.3976 14.1389C26.7719 14.2336 27.114 14.427 27.388 14.699M13.145 20.434C13.4037 20.3886 13.6688 20.3946 13.9252 20.4517C14.1816 20.5088 14.4242 20.6158 14.6392 20.7667C14.8542 20.9175 15.0374 21.1093 15.1783 21.3309C15.3192 21.5526 15.4151 21.7998 15.4605 22.0585C15.5059 22.3172 15.4998 22.5823 15.4428 22.8387C15.3857 23.0951 15.2787 23.3377 15.1278 23.5527C14.977 23.7677 14.7852 23.9509 14.5636 24.0918C14.3419 24.2327 14.0947 24.3286 13.836 24.374L10.592 24.947L9.202 17.07L12.451 16.497C12.7122 16.4452 12.9811 16.4461 13.2419 16.4996C13.5027 16.5532 13.7502 16.6583 13.9698 16.8088C14.1895 16.9593 14.3768 17.1522 14.5209 17.3761C14.665 17.6 14.7629 17.8505 14.8089 18.1127C14.8548 18.375 14.8479 18.6438 14.7886 18.9033C14.7292 19.1629 14.6186 19.408 14.4633 19.6242C14.3079 19.8405 14.1109 20.0235 13.8838 20.1625C13.6568 20.3016 13.4042 20.3939 13.141 20.434H13.145Z" stroke="#39B8FF" stroke-linecap="round" stroke-linejoin="round"/>
</svg>
