<svg width="48" height="48" viewBox="0 0 48 48" fill="none" xmlns="http://www.w3.org/2000/svg">
<path d="M22.2 4.86L6.69 11.25V27C6.69 35.44 24 43.5 24 43.5C24 43.5 41.31 35.44 41.31 27V11.25L25.8 4.86C25.2296 4.62235 24.6179 4.5 24 4.5C23.3821 4.5 22.7704 4.62235 22.2 4.86V4.86Z" stroke="#39B8FF" stroke-linecap="round" stroke-linejoin="round"/>
<path d="M31.65 19.26H16.36C15.7801 19.26 15.31 19.7301 15.31 20.31V31.61C15.31 32.1899 15.7801 32.66 16.36 32.66H31.65C32.2299 32.66 32.7 32.1899 32.7 31.61V20.31C32.7 19.7301 32.2299 19.26 31.65 19.26Z" stroke="#39B8FF" stroke-linecap="round" stroke-linejoin="round"/>
<path d="M18.25 19.26V16.85C18.25 15.325 18.8558 13.8625 19.9341 12.7841C21.0125 11.7058 22.475 11.1 24 11.1C25.525 11.1 26.9875 11.7058 28.0659 12.7841C29.1442 13.8625 29.75 15.325 29.75 16.85V19.26" stroke="#39B8FF" stroke-linecap="round" stroke-linejoin="round"/>
<path d="M24 28.19C25.2316 28.19 26.23 27.1916 26.23 25.96C26.23 24.7284 25.2316 23.73 24 23.73C22.7684 23.73 21.77 24.7284 21.77 25.96C21.77 27.1916 22.7684 28.19 24 28.19Z" stroke="#39B8FF" stroke-linecap="round" stroke-linejoin="round"/>
</svg>
