<svg width="32" height="32" viewBox="0 0 32 32" fill="none" xmlns="http://www.w3.org/2000/svg">
<path d="M2 22H30V24H2V22ZM2 26H30V28H2V26ZM24 10C23.6044 10 23.2178 10.1173 22.8889 10.3371C22.56 10.5568 22.3036 10.8692 22.1522 11.2346C22.0009 11.6001 21.9613 12.0022 22.0384 12.3902C22.1156 12.7781 22.3061 13.1345 22.5858 13.4142C22.8655 13.6939 23.2219 13.8844 23.6098 13.9616C23.9978 14.0387 24.3999 13.9991 24.7654 13.8478C25.1308 13.6964 25.4432 13.44 25.6629 13.1111C25.8827 12.7822 26 12.3956 26 12C26 11.4696 25.7893 10.9609 25.4142 10.5858C25.0391 10.2107 24.5304 10 24 10ZM16 16C15.2089 16 14.4355 15.7654 13.7777 15.3259C13.1199 14.8864 12.6072 14.2616 12.3045 13.5307C12.0017 12.7998 11.9225 11.9956 12.0769 11.2196C12.2312 10.4437 12.6122 9.73098 13.1716 9.17157C13.731 8.61216 14.4437 8.2312 15.2196 8.07686C15.9956 7.92252 16.7998 8.00173 17.5307 8.30448C18.2616 8.60723 18.8864 9.11993 19.3259 9.77772C19.7654 10.4355 20 11.2089 20 12C19.9987 13.0605 19.5768 14.0771 18.827 14.827C18.0771 15.5768 17.0605 15.9987 16 16ZM16 10C15.6044 10 15.2178 10.1173 14.8889 10.3371C14.56 10.5568 14.3036 10.8692 14.1522 11.2346C14.0009 11.6001 13.9613 12.0022 14.0384 12.3902C14.1156 12.7781 14.3061 13.1345 14.5858 13.4142C14.8655 13.6939 15.2219 13.8844 15.6098 13.9616C15.9978 14.0387 16.3999 13.9991 16.7654 13.8478C17.1308 13.6964 17.4432 13.44 17.6629 13.1111C17.8827 12.7822 18 12.3956 18 12C17.9995 11.4697 17.7886 10.9613 17.4136 10.5864C17.0387 10.2114 16.5303 10.0005 16 10ZM8 10C7.60444 10 7.21776 10.1173 6.88886 10.3371C6.55996 10.5568 6.30362 10.8692 6.15224 11.2346C6.00087 11.6001 5.96126 12.0022 6.03843 12.3902C6.1156 12.7781 6.30608 13.1345 6.58579 13.4142C6.86549 13.6939 7.22186 13.8844 7.60982 13.9616C7.99778 14.0387 8.39991 13.9991 8.76537 13.8478C9.13082 13.6964 9.44318 13.44 9.66294 13.1111C9.8827 12.7822 10 12.3956 10 12C10 11.4696 9.78929 10.9609 9.41421 10.5858C9.03914 10.2107 8.53043 10 8 10Z" fill="#39B8FF"/>
<path d="M28 20H4C3.46997 19.9987 2.96203 19.7875 2.58724 19.4128C2.21246 19.038 2.00132 18.53 2 18V6C2.00132 5.46997 2.21246 4.96203 2.58724 4.58724C2.96203 4.21246 3.46997 4.00132 4 4H28C28.53 4.00132 29.038 4.21246 29.4128 4.58724C29.7875 4.96203 29.9987 5.46997 30 6V18C29.9992 18.5302 29.7882 19.0384 29.4133 19.4133C29.0384 19.7882 28.5302 19.9992 28 20ZM28 6H4V18H28V6Z" fill="#39B8FF"/>
</svg>
