<svg width="32" height="32" viewBox="0 0 32 32" fill="none" xmlns="http://www.w3.org/2000/svg">
<path d="M2 28H30V30H2V28ZM27 11C27.2652 11 27.5196 10.8946 27.7071 10.7071C27.8946 10.5196 28 10.2652 28 10V7C27.9999 6.79449 27.9365 6.59399 27.8184 6.4258C27.7003 6.2576 27.5333 6.12988 27.34 6.06L16.34 2.06C16.1203 1.98057 15.8797 1.98057 15.66 2.06L4.66 6.06C4.46673 6.12988 4.29968 6.2576 4.18159 6.4258C4.06349 6.59399 4.00009 6.79449 4 7V10C4 10.2652 4.10536 10.5196 4.29289 10.7071C4.48043 10.8946 4.73478 11 5 11H6V24H4V26H28V24H26V11H27ZM6 7.7L16 4.06L26 7.7V9H6V7.7ZM18 24H14V11H18V24ZM8 11H12V24H8V11ZM24 24H20V11H24V24Z" fill="#39B8FF"/>
</svg>
