<svg width="26" height="26" viewBox="0 0 26 26" fill="none" xmlns="http://www.w3.org/2000/svg">
<path d="M1.3125 10.8751C1.03071 10.8751 0.760457 10.7631 0.561199 10.5639C0.361942 10.3646 0.25 10.0944 0.25 9.81257V1.3147C0.25 1.0329 0.361942 0.762654 0.561199 0.563397C0.760457 0.364139 1.03071 0.252197 1.3125 0.252197H9.8125C10.0943 0.252197 10.3645 0.364139 10.5638 0.563397C10.7631 0.762654 10.875 1.0329 10.875 1.3147V9.81257C10.875 10.0944 10.7631 10.3646 10.5638 10.5639C10.3645 10.7631 10.0943 10.8751 9.8125 10.8751H1.3125ZM16.1875 10.8751C15.9057 10.8751 15.6355 10.7631 15.4362 10.5639C15.2369 10.3646 15.125 10.0944 15.125 9.81257V1.3147C15.125 1.0329 15.2369 0.762654 15.4362 0.563397C15.6355 0.364139 15.9057 0.252197 16.1875 0.252197H24.6854C24.9672 0.252197 25.2374 0.364139 25.4367 0.563397C25.6359 0.762654 25.7479 1.0329 25.7479 1.3147V9.81257C25.7479 10.0944 25.6359 10.3646 25.4367 10.5639C25.2374 10.7631 24.9672 10.8751 24.6854 10.8751H16.1875ZM1.3125 25.7501C1.03071 25.7501 0.760457 25.6381 0.561199 25.4389C0.361942 25.2396 0.25 24.9694 0.25 24.6876V16.1876C0.25 15.9058 0.361942 15.6355 0.561199 15.4363C0.760457 15.237 1.03071 15.1251 1.3125 15.1251H9.8125C10.0943 15.1251 10.3645 15.237 10.5638 15.4363C10.7631 15.6355 10.875 15.9058 10.875 16.1876V24.6876C10.875 24.9694 10.7631 25.2396 10.5638 25.4389C10.3645 25.6381 10.0943 25.7501 9.8125 25.7501H1.3125ZM16.1875 25.7501C15.9057 25.7501 15.6355 25.6381 15.4362 25.4389C15.2369 25.2396 15.125 24.9694 15.125 24.6876V16.1876C15.125 15.9058 15.2369 15.6355 15.4362 15.4363C15.6355 15.237 15.9057 15.1251 16.1875 15.1251H24.6854C24.9672 15.1251 25.2374 15.237 25.4367 15.4363C25.6359 15.6355 25.7479 15.9058 25.7479 16.1876V24.6876C25.7479 24.9694 25.6359 25.2396 25.4367 25.4389C25.2374 25.6381 24.9672 25.7501 24.6854 25.7501H16.1875Z" fill="black"/>
</svg>
