<svg width="32" height="32" viewBox="0 0 32 32" fill="none" xmlns="http://www.w3.org/2000/svg">
<path d="M24.96 7.3216V3.5648C24.96 2.3024 20.9472 0 16 0C11.0512 0 7.03999 2.3024 7.03999 3.5648V7.3216C7.03999 10.7472 13.2432 13.5744 13.2432 16C13.2432 18.4224 7.03999 21.2496 7.03999 24.6752V28.4352C7.03999 29.696 11.0512 32 16 32C20.9472 32 24.96 29.696 24.96 28.4336V24.6736C24.96 21.248 18.7568 18.4208 18.7568 15.9984C18.7568 13.5744 24.96 10.7472 24.96 7.3216ZM9.50559 3.7248C10.6192 3.0224 12.7056 1.9936 16.088 1.9936C19.4688 1.9936 22.4976 3.7248 22.4976 3.7248C22.7248 3.8624 23.6144 4.3376 23.0048 4.6992C21.664 5.4944 19.04 6.3312 16 6.3312C12.96 6.3312 10.4256 5.4096 9.08159 4.6128C8.47199 4.2528 9.50559 3.7248 9.50559 3.7248ZM16.8016 16C16.8016 17.9088 18.3952 19.1376 20.0832 20.7776C21.3168 21.9744 23.0048 23.6144 23.0048 24.6736V26.7984C21.4528 26.0256 16.8096 25.2704 16.8096 22.792C16.8096 21.5392 15.1888 21.5392 15.1888 22.792C15.1888 25.2704 10.5456 26.0256 8.99359 26.7984V24.6736C8.99359 23.6144 10.6832 21.9728 11.9152 20.7776C13.6032 19.1376 15.1968 17.9088 15.1968 16C15.1968 14.0912 13.6032 12.8624 11.9152 11.2224C10.6816 10.0224 8.99359 8.3824 8.99359 7.3216L8.91999 5.7248C10.5616 6.6096 13.1632 7.4496 16 7.4496C18.8352 7.4496 21.4496 6.6096 23.0928 5.7248L23.0048 7.3216C23.0048 8.3808 21.3152 10.0224 20.0832 11.2224C18.3968 12.8624 16.8016 14.0912 16.8016 16Z" fill="#39B8FF"/>
</svg>
