<svg width="32" height="32" viewBox="0 0 32 32" fill="none" xmlns="http://www.w3.org/2000/svg">
<path d="M28.5467 15.2133L16.7733 3.43999C16.28 2.94666 15.6 2.66666 14.8933 2.66666H5.33334C3.86667 2.66666 2.66667 3.86666 2.66667 5.33332V14.8933C2.66667 15.6 2.94667 16.28 3.45334 16.7733L15.2267 28.5467C16.2667 29.5867 17.96 29.5867 19 28.5467L28.56 18.9867C29.6 17.9467 29.6 16.2667 28.5467 15.2133ZM8.66667 10.6667C7.56001 10.6667 6.66667 9.77332 6.66667 8.66666C6.66667 7.55999 7.56001 6.66666 8.66667 6.66666C9.77334 6.66666 10.6667 7.55999 10.6667 8.66666C10.6667 9.77332 9.77334 10.6667 8.66667 10.6667Z" fill="#39B8FF"/>
</svg>
